<svg width="203.49999999999997" height="51.61951219512194" viewBox="0 0 369 93.6" class="css-1j8o68f">
  <defs id="SvgjsDefs8091"></defs>
  <g id="SvgjsG8092" featurekey="symbolFeature-0" transform="matrix(1.0998827081218103,0,0,1.0998827081218103,-5.488927912965715,-8.139132144994385)" fill="#364f6b">
    <g xmlns="http://www.w3.org/2000/svg">
      <path d="M76.1,38.9c7.4,0,13.3-6,13.3-13.3s-6-13.3-13.3-13.3s-13.3,6-13.3,13.3S68.7,38.9,76.1,38.9z M76.1,13.5   c6.6,0,12,5.4,12,12s-5.4,12-12,12s-12-5.4-12-12S69.4,13.5,76.1,13.5z"></path>
      <path d="M76,25.1c2.7,0,4.9-2.3,4.9-5.1c0-2.8-2.2-5.1-4.9-5.1c-2.7,0-4.9,2.3-4.9,5.1C71.2,22.8,73.4,25.1,76,25.1z M76,16.3   c2,0,3.6,1.7,3.6,3.8c0,2.1-1.6,3.8-3.6,3.8c-2,0-3.6-1.7-3.6-3.8C72.5,18,74.1,16.3,76,16.3z"></path>
      <path d="M67.7,32.8c1.1,0.8,3.6,2,8.3,2c0,0,0,0,0,0c4.7,0,7.2-1.3,8.3-2c0.5-0.4,0.8-1,0.7-1.6c-0.4-3-3.8-5.4-5.9-6.2   c-0.2-0.1-0.5,0-0.7,0.1L76,27.3l-2.6-2.1C73.2,25,73,24.9,72.8,25c-2,0.8-5.4,3.1-5.8,6.2C66.9,31.8,67.2,32.5,67.7,32.8z    M72.9,26.4l2.7,2.2c0.2,0.2,0.6,0.2,0.8,0l2.6-2.2c1.9,0.8,4.5,2.8,4.7,5c0,0.2,0,0.3-0.2,0.4c-0.8,0.5-3,1.8-7.5,1.8   c0,0-0.1,0-0.1,0c0,0-0.1,0-0.1,0c-4.5,0-6.7-1.3-7.5-1.8c-0.1-0.1-0.2-0.2-0.2-0.4C68.6,29.2,71.1,27.2,72.9,26.4z"></path>
      <path d="M93.1,52.7c-0.1-3.9-0.8-7.8-2.1-11.6l-1-2.4c3-4.1,5.3-8.7,5-13C94.1,11.2,82.2,7.4,76.1,7.4c-3.7,0-11.8,1.7-16.1,8.4   l-2.2-0.5c0,0-0.1,0-0.1,0c-1.2-0.1-2.3-0.2-3.4-0.2C33.2,15,16,31.9,15.5,52.8c0,0,0,0,0,0c0,0.3,0,0.6,0,1c0,0.6,0,1.2,0,1.8   c0,0,0,0.1,0,0.1l0.3,1.3c-2.3-0.8-3.7-1.7-4.2-2.9c-0.5-1.2,0.1-2.8,1.8-4.7c0.2-0.2,0.2-0.5,0.1-0.8c-0.2-0.2-0.5-0.4-0.7-0.3   c-0.1,0-9.3,2.9-7.6,10.8c0.6,2.8,4.5,4.9,11.9,6.4l0.9,2c1.6,4.1,3.8,7.9,6.6,11.2c0,0,0,0.1,0.1,0.1c0,0,0.1,0.1,0.1,0.1   c7.3,8.5,18,13.6,29.5,13.6c0.3,0,0.7,0,1,0c0,0,0.1,0,0.1,0c0.1,0,0.1,0,0.2,0c0,0,0,0,0,0c20.8-0.7,37.5-17.8,37.5-38.8   c0-0.3,0-0.6,0-0.9c0,0,0-0.1,0-0.1C93.1,52.8,93.1,52.8,93.1,52.7z M54.8,16.7L54.7,24v14.9c-2.8-0.1-7.2-0.3-10.9-1.8   c0-0.3,0.1-0.6,0.1-0.9c0-2.3-1.4-4.3-3.4-5.2c1.2-2.1,2.5-4.1,4-5.8c1.6-1.8,3.3-3.5,5.1-5C49.6,20.2,52.5,17.8,54.8,16.7z    M54.3,62.8l-11.1-9c-0.2-0.2-0.5-0.2-0.7-0.1c-0.2,0.1-0.4,0.3-0.4,0.6v4.8c-1.2,0-3.3,0.1-6,0.1c-0.3,0-0.6,0-0.9,0   c-0.1-1.4-0.3-4.3-0.3-5.8h19.8V68c-1.1,0-3.3,0.1-5.3,0.2l4.9-4.4c0.1-0.1,0.2-0.3,0.2-0.5C54.5,63.1,54.4,62.9,54.3,62.8z    M34.9,52.1c0.1-3.4,0.7-7.5,1.4-10.4c0.6,0.2,1.2,0.3,1.8,0.3c2.4,0,4.5-1.5,5.4-3.6c3.5,1.4,7.4,1.7,11.3,1.8v11.9H34.9z    M38.1,31.8c2.5,0,4.5,2,4.5,4.5c0,2.5-2,4.5-4.5,4.5s-4.5-2-4.5-4.5C33.6,33.8,35.6,31.8,38.1,31.8z M52.8,16.3   c-2,1.2-3.9,2.7-4,2.8c-1.9,1.5-3.7,3.3-5.3,5.2c-1.6,1.9-3,4-4.3,6.2c0,0,0,0,0,0c-0.4-0.1-0.8-0.1-1.2-0.1   c-1.8,0-3.5,0.9-4.5,2.2c-0.4-0.3-1-0.6-1.5-0.9c-1.8-1.1-3.9-2.3-5-3.6C33.5,21.2,42.6,16.8,52.8,16.3z M26.1,29.1   c1.2,1.4,3.4,2.7,5.2,3.8c0.5,0.3,1.1,0.6,1.5,0.9c-0.4,0.8-0.6,1.6-0.6,2.5c0,2.1,1.1,3.9,2.8,4.9c-0.6,2.9-1.3,7.2-1.5,11   l-16.7,0.1C17.2,43.4,20.7,35.3,26.1,29.1z M16.8,55.6c0-0.6,0-1.2,0-1.7c0-0.1,0-0.2,0-0.3l16.8-0.1c0.1,1.4,0.2,4.3,0.3,5.7   c-7.2-0.1-12.8-0.7-16.7-1.7L16.8,55.6z M6.5,59c-0.9-4.5,2.2-7.1,4.5-8.3c-0.9,1.5-1.1,2.8-0.5,4.1c0.8,1.8,3,3,6,3.9   c0,0,0.1,0,0.1,0c5.3,1.5,12.9,1.9,19.5,1.9c3.3,0,5.8-0.1,6.7-0.1c0.3,0,0.6-0.3,0.6-0.6v-4.1l9.4,7.7l-9.4,8.5v-4.5   c0-0.3-0.3-0.6-0.6-0.6C19.6,65.9,7.4,63.3,6.5,59z M42.1,68.8l-4.7,1.6c-0.2-0.5-0.4-1.2-0.5-1.7c-0.1-0.4-0.2-0.7-0.3-0.9   c1.7,0.1,3.6,0.2,5.5,0.2V68.8z M19.2,67.1l-0.5-1.2c4.4,0.8,10,1.3,16.6,1.7c0,0.1,0,0.2,0,0.2c0,0.2,0.2,0.6,0.4,1.1   c0.2,0.7,0.4,1.4,0.6,1.8c-4,2-8.3,4.6-11,6.7C22.8,74.5,20.7,71,19.2,67.1z M26.1,78.6c2.6-2,6.7-4.5,10.6-6.5   c1.9,4.4,4.7,8.8,6.7,11.2l0.1,0.1c1.6,1.9,4.2,5,9.3,7.9C42.5,90.9,32.8,86.1,26.1,78.6z M44.5,82.6L44.5,82.6   c-2.1-2.5-4.8-6.7-6.6-11l4.2-1.5v3.1c0,0.3,0.2,0.5,0.4,0.6c0.1,0,0.2,0.1,0.3,0.1c0.2,0,0.3-0.1,0.4-0.2l4.6-4.1   c2.4-0.3,5.4-0.4,6.9-0.4l0.1,21.7C49.1,88,46.3,84.6,44.5,82.6z M89.8,41.6c1.2,3.5,1.9,7,2,10.6l-13.2-0.1c0,0,0,0,0,0h-2.8   c0,0,0-0.1,0-0.1c0.1,0,0.2,0.1,0.3,0.1c0.1,0,0.3,0,0.4-0.1c0.5-0.3,7.3-5.5,12.6-12.1L89.8,41.6z M76.1,8.6   c5.7,0,16.8,3.6,17.6,17.2c0.6,10.3-14.9,22.7-17.6,24.8c-2.6-2.2-17.8-15.3-17.6-24.9C58.7,12.2,70.1,8.6,76.1,8.6z M56,24   l0.1-7.6c0.5,0,1,0.1,1.5,0.1l1.8,0.4c-1.3,2.4-2.1,5.3-2.1,8.9c-0.1,4,2.2,8.4,5.2,12.5c-2.1,0.6-4.5,0.6-6.2,0.7   c-0.1,0-0.2,0-0.3,0V24z M56,40.2c0.1,0,0.2,0,0.3,0c1.8,0,4.6-0.1,7-0.9c4,5.2,9,9.7,11.3,11.6c0,0.4,0,0.8,0,1.2H56V40.2z    M56,53.4h18.5c-0.3,8.2-2.6,14.2-4,18c0,0.1-0.1,0.2-0.1,0.4c-3.5-1.6-8.6-3.6-14.4-3.9V53.4z M56,69.3c5.6,0.3,10.5,2.2,13.9,3.8   c-4,9-10.7,15.3-13.8,17.7L56,69.3z M57.6,91.2c3.5-2.8,9.6-9,13.4-17.6c2.8,1.6,6.7,4.4,9.3,7.2C74.3,86.6,66.4,90.4,57.6,91.2z    M81.2,79.9c-2.7-2.9-6.8-5.8-9.7-7.5c0.1-0.2,0.1-0.3,0.2-0.5c1.5-3.9,3.8-10.1,4.1-18.5l16,0.1c0,0.1,0,0.2,0,0.3   C91.8,64,87.8,73.2,81.2,79.9z"></path>
        <path d="M78.4,66.5c-5.5,4.8-9.9,15.2-9.9,15.2s-6.9-11.4-12.9-15.3c-9.5-6.1-13.6-6.2-13.6-6.2V65c0,0,7.8,1.2,11.7,4.6   c8.2,7.1,14.8,18.5,14.8,18.5S74.4,75,80.1,70.5C88.1,64.3,95,65,95,65v-4.8C95,60.1,85.1,60.7,78.4,66.5z"></path>
      <path d="M42,80c-6.4-3.6-17.8-4.3-17.8-4.3s8.7-10.1,10.5-17C37.5,47.9,36.2,44,36.2,44l-4.6,1.6c0,0,1.3,7.7-0.6,12.4   c-4.1,9.9-13,19.8-13,19.8s14.6,1.3,20.7,5.1c8.6,5.4,10.2,12,10.2,12l4.6-1.6C53.5,93.4,49.7,84.4,42,80z"></path>
      <path d="M35.3,36.8c11.3-0.9,14.6-3.4,14.6-3.4l-3-3.8c0,0-6.9,3.7-12.1,3.4c-10.9-0.6-23.3-5.6-23.3-5.6s3.5,14,1.8,20.9   C10.9,58.2,5,61.8,5,61.8l3,3.8c0,0,7.5-6.5,9.1-15.1c1.3-7.1-1.7-18-1.7-18S28,37.4,35.3,36.8z"></path>
      <path d="M37.4,17.8c7.3-1.1,16.7-7.4,16.7-7.4s-0.6,13.2,2.4,19.8c4.6,10.2,8,12.5,8,12.5l2.7-4c0,0-5.9-5.2-7.3-10.2   C56.9,18.2,57.7,5,57.7,5s-12.3,7.8-19.5,8.5c-10.2,1-15.6-3.3-15.6-3.3l-2.7,4.1C19.9,14.2,28.6,19.1,37.4,17.8z"></path>
      <path d="M65,60.5c0,0,3.1-7.2,7.4-10.1c9-6.1,21.9-9.7,21.9-9.7s-11.5-8.9-14.5-15.4c-4.2-9.1-1.9-15.6-1.9-15.6l-4.8-1.2   c0,0-1.9,9.6,2.2,17.4c3.4,6.4,12.5,13.2,12.5,13.2S75,42.9,69.6,47.8c-8.3,7.6-9.4,11.5-9.4,11.5L65,60.5z"></path>

    </g>
  </g>
  
</svg>