<svg width="370" height="96.47234887215527" viewBox="0 0 370.3333333333333 96.55926089816622" class="css-1j8o68f">
  <defs id="SvgjsDefs1313"></defs>
  <g id="SvgjsG1314" featurekey="pxMwYC-0" transform="matrix(1.074074074074074,0,0,1.074074074074074,-5.370369346053511,-5.37037037037037)" fill="#01696e">
    <g xmlns="http://www.w3.org/2000/svg">
      <path d="M78.4,66.5c-5.5,4.8-9.9,15.2-9.9,15.2s-6.9-11.4-12.9-15.3c-9.5-6.1-13.6-6.2-13.6-6.2V65c0,0,7.8,1.2,11.7,4.6   c8.2,7.1,14.8,18.5,14.8,18.5S74.4,75,80.1,70.5C88.1,64.3,95,65,95,65v-4.8C95,60.1,85.1,60.7,78.4,66.5z"></path>
      <path d="M42,80c-6.4-3.6-17.8-4.3-17.8-4.3s8.7-10.1,10.5-17C37.5,47.9,36.2,44,36.2,44l-4.6,1.6c0,0,1.3,7.7-0.6,12.4   c-4.1,9.9-13,19.8-13,19.8s14.6,1.3,20.7,5.1c8.6,5.4,10.2,12,10.2,12l4.6-1.6C53.5,93.4,49.7,84.4,42,80z"></path>
      <path d="M35.3,36.8c11.3-0.9,14.6-3.4,14.6-3.4l-3-3.8c0,0-6.9,3.7-12.1,3.4c-10.9-0.6-23.3-5.6-23.3-5.6s3.5,14,1.8,20.9   C10.9,58.2,5,61.8,5,61.8l3,3.8c0,0,7.5-6.5,9.1-15.1c1.3-7.1-1.7-18-1.7-18S28,37.4,35.3,36.8z"></path>
      <path d="M37.4,17.8c7.3-1.1,16.7-7.4,16.7-7.4s-0.6,13.2,2.4,19.8c4.6,10.2,8,12.5,8,12.5l2.7-4c0,0-5.9-5.2-7.3-10.2   C56.9,18.2,57.7,5,57.7,5s-12.3,7.8-19.5,8.5c-10.2,1-15.6-3.3-15.6-3.3l-2.7,4.1C19.9,14.2,28.6,19.1,37.4,17.8z"></path>
      <path d="M65,60.5c0,0,3.1-7.2,7.4-10.1c9-6.1,21.9-9.7,21.9-9.7s-11.5-8.9-14.5-15.4c-4.2-9.1-1.9-15.6-1.9-15.6l-4.8-1.2   c0,0-1.9,9.6,2.2,17.4c3.4,6.4,12.5,13.2,12.5,13.2S75,42.9,69.6,47.8c-8.3,7.6-9.4,11.5-9.4,11.5L65,60.5z"></path>
    </g>
  </g>
</svg>


<svg width="400" height="100" viewBox="0 0 400 100" class="css-1j8o68f">
  <defs id="SvgjsDefs1313"></defs>
  <g id="SvgjsG1314" featurekey="pxMwYC-0" transform="matrix(1,0,0,1,-6,-6)" fill="#01696e">
    <g xmlns="http://www.w3.org/2000/svg">
      <path d="M78.4,66.5c-5.5,4.8-9.9,15.2-9.9,15.2s-6.9-11.4-12.9-15.3c-9.5-6.1-13.6-6.2-13.6-6.2V65c0,0,7.8,1.2,11.7,4.6   c8.2,7.1,14.8,18.5,14.8,18.5S74.4,75,80.1,70.5C88.1,64.3,95,65,95,65v-4.8C95,60.1,85.1,60.7,78.4,66.5z"></path>
      <path d="M42,80c-6.4-3.6-17.8-4.3-17.8-4.3s8.7-10.1,10.5-17C37.5,47.9,36.2,44,36.2,44l-4.6,1.6c0,0,1.3,7.7-0.6,12.4   c-4.1,9.9-13,19.8-13,19.8s14.6,1.3,20.7,5.1c8.6,5.4,10.2,12,10.2,12l4.6-1.6C53.5,93.4,49.7,84.4,42,80z"></path>
      <path d="M35.3,36.8c11.3-0.9,14.6-3.4,14.6-3.4l-3-3.8c0,0-6.9,3.7-12.1,3.4c-10.9-0.6-23.3-5.6-23.3-5.6s3.5,14,1.8,20.9   C10.9,58.2,5,61.8,5,61.8l3,3.8c0,0,7.5-6.5,9.1-15.1c1.3-7.1-1.7-18-1.7-18S28,37.4,35.3,36.8z"></path>
      <path d="M37.4,17.8c7.3-1.1,16.7-7.4,16.7-7.4s-0.6,13.2,2.4,19.8c4.6,10.2,8,12.5,8,12.5l2.7-4c0,0-5.9-5.2-7.3-10.2   C56.9,18.2,57.7,5,57.7,5s-12.3,7.8-19.5,8.5c-10.2,1-15.6-3.3-15.6-3.3l-2.7,4.1C19.9,14.2,28.6,19.1,37.4,17.8z"></path>
      <path d="M65,60.5c0,0,3.1-7.2,7.4-10.1c9-6.1,21.9-9.7,21.9-9.7s-11.5-8.9-14.5-15.4c-4.2-9.1-1.9-15.6-1.9-15.6l-4.8-1.2   c0,0-1.9,9.6,2.2,17.4c3.4,6.4,12.5,13.2,12.5,13.2S75,42.9,69.6,47.8c-8.3,7.6-9.4,11.5-9.4,11.5L65,60.5z"></path>
    </g>
    <g>
      <path xmlns="http://www.w3.org/2000/svg" fill-rule="evenodd" clip-rule="evenodd" d="M50.459,95.503c-2.519,0-4.975-0.259-7.383-0.655l2.064-5.143  c1.744,0.236,3.511,0.399,5.319,0.399c2.501,0,4.94-0.261,7.313-0.703l-5.998-6.497h-8.514h-1.8h-1.8v-5.398h-5.899  c-0.623,1.07-1.771,1.8-3.099,1.8c-1.988,0-3.601-1.612-3.601-3.601s1.612-3.6,3.601-3.6c1.329,0,2.477,0.728,3.099,1.8h5.899v-1.8  v-3.601h3.6H61.26v0.77l4.416,4.784c0.315-0.09,0.641-0.153,0.983-0.153c1.988,0,3.6,1.612,3.6,3.601c0,1.987-1.611,3.598-3.6,3.598  s-3.599-1.61-3.599-3.598c0-0.296,0.044-0.579,0.11-0.854l-4.197-4.547H43.261v7.2H54.06v0.768l7.725,8.366  c6.576-1.96,12.414-5.601,17.071-10.395l-5.483-5.939H72.06V55.081l-5.435-5.883c-1.503,1.309-3.101,2.702-4.651,4.053  c-0.299,0.263-0.893,0.779-0.893,0.779l-1.621,0.024v0.051h-7.699c-0.623,1.072-1.771,1.801-3.1,1.801c-1.988,0-3.6-1.612-3.6-3.601  s1.612-3.599,3.6-3.599c1.329,0,2.477,0.728,3.1,1.8h7.699v0.393l10.799-9.623V27.107h-7.198v7.7  c1.07,0.623,1.798,1.771,1.798,3.099c0,1.988-1.61,3.601-3.599,3.601c-1.987,0-3.6-1.612-3.6-3.601c0-1.329,0.728-2.477,1.8-3.099  v-7.7v-1.8v-1.8h10.799v-7.183c-1.426-0.825-2.89-1.593-4.421-2.238c-0.573,0.264-1.206,0.422-1.879,0.422  c-2.484,0-4.499-2.015-4.499-4.5c0-2.484,2.015-4.499,4.499-4.499c2.243,0,4.087,1.644,4.428,3.788  c15.918,6.93,27.07,22.741,27.07,41.209C95.457,75.357,75.312,95.503,50.459,95.503z M81.058,52.306  c-1.988,0-3.599-1.61-3.599-3.599c0-1.329,0.729-2.477,1.799-3.101V30.708h1.8h1.801h1.87c-2.753-4.731-6.471-8.829-10.869-12.054  v26.453h-2.542c-0.584,0.508-1.25,1.09-1.978,1.723l6.525,7.069l-0.271,0.207h0.064v5.4h2.3c0.622-1.072,1.77-1.8,3.099-1.8  c1.988,0,3.601,1.612,3.601,3.601c0,1.987-1.612,3.6-3.601,3.6c-1.329,0-2.477-0.729-3.099-1.8h-2.3v6.168l5.598,6.063  c5.489-6.791,8.802-15.415,8.802-24.831c0-5.783-1.266-11.257-3.498-16.199h-3.702v11.298c1.072,0.625,1.8,1.772,1.8,3.101  C84.658,50.695,83.046,52.306,81.058,52.306z M50.459,10.908c-1.214,0-2.412,0.076-3.598,0.183v11.386l4.416,4.784  c0.314-0.09,0.64-0.153,0.982-0.153c1.988,0,3.601,1.612,3.601,3.601c0,1.988-1.612,3.6-3.601,3.6s-3.599-1.612-3.599-3.6  c0-0.295,0.044-0.579,0.111-0.853l-2.535-2.748h-1.918l-6.35,5.536l4.86,5.263h0.431v0.468l0.018,0.02l-0.018,0.016v22.897H61.76  c0.622-1.073,1.77-1.801,3.099-1.801c1.988,0,3.601,1.612,3.601,3.601s-1.612,3.599-3.601,3.599c-1.329,0-2.477-0.729-3.099-1.799  H43.261h-1.8h-1.8V39.782L23.152,21.899c-1,0.953-1.942,1.963-2.839,3.015L35.63,41.507h0.431v0.467l0.018,0.02l-0.018,0.016v21.097  v3.599h-3.599h-9h-1.798h-1.8v-8.999h-8.327c2.744,14.895,13.823,26.857,28.229,30.896l-2.025,5.049  C19.088,88.158,5.464,70.936,5.464,50.507c0-24.852,20.146-44.997,44.996-44.997c2.447,0,4.831,0.248,7.172,0.624l-2.062,5.142  C53.893,11.06,52.196,10.908,50.459,10.908z M18.068,27.79c-4.534,6.425-7.206,14.251-7.206,22.717c0,1.214,0.063,2.412,0.171,3.599  h12.428v1.801v1.8v5.4h9V43.382l-5.627-6.095l-5.231,7.245c0.031,0.188,0.06,0.378,0.06,0.575c0,1.988-1.612,3.6-3.6,3.6  s-3.6-1.612-3.6-3.6s1.612-3.6,3.6-3.6c0.401,0,0.779,0.081,1.139,0.202l5.142-7.12L18.068,27.79z M43.261,11.594  c-6.497,1.195-12.418,3.998-17.389,7.942l9.656,10.461l7.733-6.742V11.594z"></path>
    </g>
  </g>
</svg>